solid 
facet normal 0.39088803432475205 0.773096972751872 0.49952739198528723
outer loop
vertex 156.10333251953125 101.99661254882812 464.28839111328125
vertex 185.43626403808594 107.88545227050781 432.22100830078125
vertex 152.4635772705078 121.42505645751953 437.0679931640625
endloop
endfacet
facet normal -0.019005298632069498 -0.4601681392379373 0.8876283469190247
outer loop
vertex 130.5684814453125 -15.343756675720215 496.41461181640625
vertex 96.51568603515625 -18.33664321899414 494.1339111328125
vertex 127.10264587402344 -48.48004913330078 479.1617431640625
endloop
endfacet
facet normal 0.8695593452127517 -0.48909488232798043 -0.06821100522459325
outer loop
vertex 220.06185913085938 -47.77692413330078 423.3866882324219
vertex 223.35867309570312 -36.22698211669922 382.5979309082031
vertex 237.71109008789062 -15.127348899841309 414.27252197265625
endloop
endfacet
facet normal 0.9890908138007847 0.11154209303220256 -0.0962170646865562
outer loop
vertex 237.71109008789062 -15.127348899841309 414.27252197265625
vertex 231.54750061035156 2.175924777984619 370.9714050292969
vertex 235.5191192626953 19.680850982666016 432.0918273925781
endloop
endfacet
facet normal -0.5714086320047917 -0.8140529338671904 0.10397113124628593
outer loop
vertex 96.22639465332031 -52.714439392089844 458.7477722167969
vertex 73.40312194824219 -40.677494049072266 427.55926513671875
vertex 119.84320831298828 -75.30519104003906 411.6653137207031
endloop
endfacet
facet normal 0.5680736841678978 0.20943534921395457 0.7958826068306433
outer loop
vertex 171.2230682373047 38.85686492919922 490.83013916015625
vertex 188.20619201660156 16.74530029296875 484.52679443359375
vertex 213.16139221191406 44.88819122314453 459.3088684082031
endloop
endfacet
facet normal 0.488530595406033 0.7875575404040831 -0.3756207900328438
outer loop
vertex 194.28524780273438 115.06073760986328 395.18609619140625
vertex 217.33016967773438 89.17757415771484 370.8894348144531
vertex 161.98477172851562 126.74649810791016 377.6775817871094
endloop
endfacet
facet normal 0.9282313686681416 0.3497905612991826 0.12662183637300126
outer loop
vertex 222.97470092773438 73.40108489990234 415.6166687011719
vertex 241.2715606689453 30.657106399536133 399.5666809082031
vertex 233.5259246826172 59.94208526611328 375.44866943359375
endloop
endfacet
facet normal 0.3429776704039383 -0.9391786846621111 0.01759874656429622
outer loop
vertex 162.64926147460938 -76.4754638671875 433.29681396484375
vertex 187.6667022705078 -68.21833038330078 386.39007568359375
vertex 210.32875061035156 -59.353233337402344 417.83172607421875
endloop
endfacet
facet normal 0.3330843766689745 -0.1608409391690006 0.9290774942416131
outer loop
vertex 134.72958374023438 34.32944107055664 507.94757080078125
vertex 146.2131805419922 -10.646236419677734 496.04443359375
vertex 175.65850830078125 14.921096801757812 489.9141540527344
endloop
endfacet
facet normal 0.9188815515765907 0.2949373195538988 0.26204707917959863
outer loop
vertex 222.97470092773438 73.40108489990234 415.6166687011719
vertex 235.5191192626953 19.680850982666016 432.0918273925781
vertex 241.2715606689453 30.657106399536133 399.5666809082031
endloop
endfacet
facet normal -0.6838311097659762 -0.6411639040814427 -0.34825832569986875
outer loop
vertex 53.25383377075195 -22.192583084106445 425.765625
vertex 60.78398895263672 -2.7306981086730957 375.1491394042969
vertex 81.78990936279297 -35.52231979370117 394.27374267578125
endloop
endfacet
facet normal 0.2037620457053776 0.24005788593080984 -0.9491328885526988
outer loop
vertex 202.81216430664062 53.99497985839844 333.69921875
vertex 156.97198486328125 39.75166702270508 320.25567626953125
vertex 165.13331604003906 89.22749328613281 334.5213623046875
endloop
endfacet
facet normal -0.09300448485087925 0.2899827416518682 -0.9525020605445894
outer loop
vertex 165.13331604003906 89.22749328613281 334.5213623046875
vertex 156.97198486328125 39.75166702270508 320.25567626953125
vertex 127.63700103759766 107.02972412109375 343.60235595703125
endloop
endfacet
facet normal 0.5950079725254137 -0.519291599397925 0.6134343872216013
outer loop
vertex 222.0773162841797 -36.515899658203125 441.5476989746094
vertex 184.25364685058594 -33.59513854980469 480.7077331542969
vertex 192.40069580078125 -60.954254150390625 449.6450500488281
endloop
endfacet
facet normal 0.6710658996622296 -0.31406600912883104 0.6715899792435941
outer loop
vertex 214.0760955810547 1.0394943952560425 467.10528564453125
vertex 184.25364685058594 -33.59513854980469 480.7077331542969
vertex 222.0773162841797 -36.515899658203125 441.5476989746094
endloop
endfacet
facet normal 0.9315372539414736 -0.36110773245627376 0.042889976445168336
outer loop
vertex 241.2715606689453 30.657106399536133 399.5666809082031
vertex 235.5191192626953 19.680850982666016 432.0918273925781
vertex 231.54750061035156 2.175924777984619 370.9714050292969
endloop
endfacet
facet normal -0.39875651168240117 0.05841362206655274 -0.9151945657334013
outer loop
vertex 156.97198486328125 39.75166702270508 320.25567626953125
vertex 97.40097045898438 42.48098373413086 346.3853759765625
vertex 92.65777587890625 74.6107406616211 350.50274658203125
endloop
endfacet
facet normal 0.48779321417297417 -0.07856271779587767 0.8694168617983691
outer loop
vertex 175.65850830078125 14.921096801757812 489.9141540527344
vertex 184.25364685058594 -33.59513854980469 480.7077331542969
vertex 214.0760955810547 1.0394943952560425 467.10528564453125
endloop
endfacet
facet normal 0.04867277471129661 -0.46526917805051266 0.8838300475533201
outer loop
vertex 127.10264587402344 -48.48004913330078 479.1617431640625
vertex 164.972900390625 -59.07952880859375 471.49639892578125
vertex 130.5684814453125 -15.343756675720215 496.41461181640625
endloop
endfacet
facet normal -0.019896195639792554 -0.9917981013795291 0.12625635627177187
outer loop
vertex 119.84320831298828 -75.30519104003906 411.6653137207031
vertex 155.74729919433594 -77.34638214111328 401.2888488769531
vertex 143.08633422851562 -70.56231689453125 452.5854187011719
endloop
endfacet
facet normal 0.7588721314138439 0.6506965706862559 0.026590619785102458
outer loop
vertex 194.28524780273438 115.06073760986328 395.18609619140625
vertex 217.13906860351562 87.66284942626953 413.40997314453125
vertex 217.33016967773438 89.17757415771484 370.8894348144531
endloop
endfacet
facet normal -0.39931069898591737 -0.20613244812243114 -0.8933422521667893
outer loop
vertex 137.89093017578125 34.594181060791016 326.2696228027344
vertex 147.60055541992188 -21.727710723876953 334.9254455566406
vertex 92.67063903808594 -2.480356454849243 355.037109375
endloop
endfacet
facet normal 0.0 0.0 0.0
outer loop
vertex 145.31829833984375 95.83566284179688 475.5865783691406
vertex 145.31829833984375 95.83566284179688 475.5865783691406
vertex 145.31829833984375 95.83566284179688 475.5865783691406
endloop
endfacet
facet normal 0.0 0.0 0.0
outer loop
vertex 145.31829833984375 95.83566284179688 475.5865783691406
vertex 145.71832275390625 95.68386840820312 475.48388671875
vertex 145.31829833984375 95.83566284179688 475.5865783691406
endloop
endfacet
facet normal 0.0 0.0 0.0
outer loop
vertex 145.31829833984375 95.83566284179688 475.5865783691406
vertex 144.998291015625 96.2972412109375 475.4789123535156
vertex 145.31829833984375 95.83566284179688 475.5865783691406
endloop
endfacet
facet normal -0.4475116456466447 -0.5084295691295208 -0.735685190992317
outer loop
vertex 134.64515686035156 -61.271690368652344 370.13482666015625
vertex 92.67063903808594 -2.480356454849243 355.037109375
vertex 147.60055541992188 -21.727710723876953 334.9254455566406
endloop
endfacet
facet normal 0.30515291555241214 -0.12508221187200233 0.9440530379184581
outer loop
vertex 184.25364685058594 -33.59513854980469 480.7077331542969
vertex 175.65850830078125 14.921096801757812 489.9141540527344
vertex 146.2131805419922 -10.646236419677734 496.04443359375
endloop
endfacet
facet normal -0.34148564314736707 0.17176792395750143 -0.9240580803302134
outer loop
vertex 127.63700103759766 107.02972412109375 343.60235595703125
vertex 156.97198486328125 39.75166702270508 320.25567626953125
vertex 92.65777587890625 74.6107406616211 350.50274658203125
endloop
endfacet
facet normal -0.5501933565308075 -0.6939177752156549 -0.46450553459471255
outer loop
vertex 81.78990936279297 -35.52231979370117 394.27374267578125
vertex 134.64515686035156 -61.271690368652344 370.13482666015625
vertex 108.91796112060547 -65.41451263427734 406.7968444824219
endloop
endfacet
facet normal -0.6500116604128999 0.6028742068413308 -0.4626310971526894
outer loop
vertex 92.65777587890625 74.6107406616211 350.50274658203125
vertex 109.54573059082031 113.45844268798828 377.3987121582031
vertex 127.63700103759766 107.02972412109375 343.60235595703125
endloop
endfacet
facet normal -0.48485493276693536 -0.08410118889504554 -0.8705416039443552
outer loop
vertex 137.89093017578125 34.594181060791016 326.2696228027344
vertex 92.67063903808594 -2.480356454849243 355.037109375
vertex 73.9533462524414 30.495820999145508 362.2760925292969
endloop
endfacet
facet normal 0.5239192665774653 -0.5067258437163933 -0.6846440837536247
outer loop
vertex 215.5298309326172 -37.35930252075195 372.3081359863281
vertex 190.76123046875 -59.91214370727539 370.0461730957031
vertex 178.2769012451172 -37.85547637939453 344.1678161621094
endloop
endfacet
facet normal 0.8515389643735307 -0.3517940061839874 0.3887446068650671
outer loop
vertex 237.71109008789062 -15.127348899841309 414.27252197265625
vertex 222.02883911132812 -3.108555316925049 459.5006408691406
vertex 220.06185913085938 -47.77692413330078 423.3866882324219
endloop
endfacet
facet normal 0.10143245884522067 -0.23024504705018103 0.9678319454334375
outer loop
vertex 146.2131805419922 -10.646236419677734 496.04443359375
vertex 134.72958374023438 34.32944107055664 507.94757080078125
vertex 107.95638275146484 4.513804912567139 503.6604309082031
endloop
endfacet
facet normal 0.63287729109807 0.7189885219731216 0.2872661478198828
outer loop
vertex 217.13906860351562 87.66284942626953 413.40997314453125
vertex 194.28524780273438 115.06073760986328 395.18609619140625
vertex 168.14791870117188 128.7112579345703 418.60394287109375
endloop
endfacet
facet normal -0.4061471659481261 -0.6403702147850727 -0.6518975898163956
outer loop
vertex 92.67063903808594 -2.480356454849243 355.037109375
vertex 81.78990936279297 -35.52231979370117 394.27374267578125
vertex 60.78398895263672 -2.7306981086730957 375.1491394042969
endloop
endfacet
facet normal 0.9316752799557076 -0.2716837450745509 -0.241182742711248
outer loop
vertex 231.54750061035156 2.175924777984619 370.9714050292969
vertex 237.71109008789062 -15.127348899841309 414.27252197265625
vertex 223.35867309570312 -36.22698211669922 382.5979309082031
endloop
endfacet
facet normal 0.33272895340336556 0.40602729632089585 0.8511364627422823
outer loop
vertex 171.2230682373047 38.85686492919922 490.83013916015625
vertex 157.60498046875 90.2558822631836 471.6343078613281
vertex 143.3612060546875 58.292640686035156 492.4503173828125
endloop
endfacet
facet normal 0.5072990170470598 0.4162225542174428 0.7545902813207939
outer loop
vertex 171.2230682373047 38.85686492919922 490.83013916015625
vertex 213.16139221191406 44.88819122314453 459.3088684082031
vertex 157.60498046875 90.2558822631836 471.6343078613281
endloop
endfacet
facet normal -0.1741471693834888 -0.178841826759341 -0.9683431026227741
outer loop
vertex 170.58309936523438 1.4467144012451172 326.51220703125
vertex 147.60055541992188 -21.727710723876953 334.9254455566406
vertex 137.89093017578125 34.594181060791016 326.2696228027344
endloop
endfacet
facet normal -0.3091225632118688 -0.908592533182272 0.280896510406851
outer loop
vertex 119.84320831298828 -75.30519104003906 411.6653137207031
vertex 143.08633422851562 -70.56231689453125 452.5854187011719
vertex 96.22639465332031 -52.714439392089844 458.7477722167969
endloop
endfacet
facet normal 0.5763555495268466 0.5388916972392386 0.6143370566523066
outer loop
vertex 213.16139221191406 44.88819122314453 459.3088684082031
vertex 215.00990295410156 81.24266052246094 425.6847839355469
vertex 157.60498046875 90.2558822631836 471.6343078613281
endloop
endfacet
facet normal 0.04730463192459868 -0.748833713749158 -0.6610675766902521
outer loop
vertex 157.33880615234375 -75.17788696289062 384.947021484375
vertex 178.2769012451172 -37.85547637939453 344.1678161621094
vertex 190.76123046875 -59.91214370727539 370.0461730957031
endloop
endfacet
facet normal 0.9270909285903329 -0.12290033100686602 0.3541156855660545
outer loop
vertex 235.5191192626953 19.680850982666016 432.0918273925781
vertex 222.02883911132812 -3.108555316925049 459.5006408691406
vertex 237.71109008789062 -15.127348899841309 414.27252197265625
endloop
endfacet
facet normal -0.5538303639991176 -0.5548404025799397 -0.6208253019791761
outer loop
vertex 92.67063903808594 -2.480356454849243 355.037109375
vertex 134.64515686035156 -61.271690368652344 370.13482666015625
vertex 81.78990936279297 -35.52231979370117 394.27374267578125
endloop
endfacet
facet normal 0.38697345650790393 0.9164020214159945 -0.10226866139245436
outer loop
vertex 194.28524780273438 115.06073760986328 395.18609619140625
vertex 161.98477172851562 126.74649810791016 377.6775817871094
vertex 168.14791870117188 128.7112579345703 418.60394287109375
endloop
endfacet
facet normal 0.9491614156058632 -0.008117475374368667 -0.314685102473283
outer loop
vertex 241.2715606689453 30.657106399536133 399.5666809082031
vertex 231.54750061035156 2.175924777984619 370.9714050292969
vertex 233.5259246826172 59.94208526611328 375.44866943359375
endloop
endfacet
facet normal -0.23262959766426755 0.9724955707874228 -0.011654831161619056
outer loop
vertex 168.14791870117188 128.7112579345703 418.60394287109375
vertex 161.98477172851562 126.74649810791016 377.6775817871094
vertex 137.33941650390625 121.2421875 410.3096618652344
endloop
endfacet
facet normal 0.0 0.0 0.0
outer loop
vertex 145.31829833984375 95.83566284179688 475.5865783691406
vertex 144.9788818359375 95.48507690429688 476.01470947265625
vertex 145.31829833984375 95.83566284179688 475.5865783691406
endloop
endfacet
endsolid